<?xml version="1.0" encoding="UTF-8"?>
<!DOCTYPE svg PUBLIC "-//W3C//DTD SVG 1.1//EN" "http://www.w3.org/Graphics/SVG/1.1/DTD/svg11.dtd">
<!-- Creator: CorelDRAW 2018 (64-Bit) -->
<svg xmlns="http://www.w3.org/2000/svg" xml:space="preserve" width="145.114mm" height="22.4509mm" version="1.1" style="shape-rendering:geometricPrecision; text-rendering:geometricPrecision; image-rendering:optimizeQuality; fill-rule:evenodd; clip-rule:evenodd"
viewBox="0 0 13860.1 2144.33"
 xmlns:xlink="http://www.w3.org/1999/xlink">
 <defs>
  <style type="text/css">
   <![CDATA[
    .fil1 {fill:red}
    .fil0 {fill:black;fill-rule:nonzero}
   ]]>
  </style>
 </defs>
 <g id="Слой_x0020_1">
  <metadata id="CorelCorpID_0Corel-Layer"/>
  <g id="_2126548739440">
   <path class="fil0" d="M3689.82 481.5c336.61,0 505.31,179.42 506.11,538.27l0 550.17c0,65.1 -32.94,97.65 -98.04,97.65l-56.76 0c-65.1,0 -97.65,-32.55 -97.65,-97.65l0 -566.44c0,-98.44 -22.63,-171.49 -67.49,-218.72 -45.24,-47.24 -113.92,-70.66 -207.2,-70.66 -91.3,0 -156.79,23.03 -196.49,69.07 -39.3,46.05 -59.15,119.48 -59.15,220.31l0 566.44c0,65.1 -32.55,97.65 -97.65,97.65l-55.97 0c-65.1,0 -97.65,-32.55 -97.65,-97.65l0 -566.44c0,-100.83 -19.85,-174.26 -59.93,-220.31 -39.69,-46.05 -105.2,-69.07 -196.1,-69.07 -92.89,0 -161.96,23.42 -207.6,70.66 -45.25,47.23 -67.88,120.28 -67.88,218.72l0 566.44c0,65.1 -32.55,97.65 -97.65,97.65l-55.97 0c-65.1,0 -97.65,-32.55 -97.65,-97.65l0 -550.17c0,-358.85 167.91,-538.27 503.73,-538.27 198.48,0 333.05,64.3 403.31,192.91 70.66,-128.62 205.22,-192.91 403.7,-192.91z"/>
   <path class="fil0" d="M5030.72 1688.63c-183.79,0 -325.9,-52.4 -426.33,-157.19 -100.03,-104.4 -150.45,-252.86 -150.45,-445.38 0,-192.91 50.42,-342.17 150.45,-446.97 100.43,-105.19 242.53,-157.58 425.93,-157.58 183.39,0 325.5,52.4 425.93,157.58 100.83,104.8 151.24,254.05 151.24,446.97 0,191.73 -50.41,339.79 -151.24,444.98 -100.42,104.8 -242.53,157.59 -425.52,157.59zm0 -231.43c107.97,0 188.15,-30.56 241.34,-91.3 53.19,-61.13 79.79,-154.01 79.79,-279.85 0,-127.02 -26.6,-220.7 -79,-281.44 -52.79,-60.33 -133.37,-90.51 -242.13,-90.51 -108.37,0 -189.35,30.17 -242.54,90.51 -52.79,60.74 -79.39,154.41 -79.39,281.44 0,126.63 26.6,219.92 79.39,280.25 53.19,60.73 134.18,90.9 242.54,90.9z"/>
   <path class="fil0" d="M6430.76 714.11c-117.89,0 -204.03,28.98 -258.81,87.73 -54.38,58.35 -81.78,153.22 -81.78,284.21 0,130.99 27.39,225.47 81.78,283.82 54.78,57.96 140.92,87.33 258.81,87.33 63.52,0 140.52,-8.73 230.23,-25.8 34.14,-6.75 60.74,-3.18 79.79,11.9 19.05,14.69 28.58,38.9 28.58,73.05l0 30.16c0,59.15 -28.19,95.27 -83.75,108.37 -96.86,23.03 -186.96,34.54 -269.93,33.74 -177.44,0 -318.75,-51.21 -423.16,-153.62 -104.8,-102.42 -157.19,-252.07 -157.19,-448.95 0,-196.89 52.4,-346.94 157.19,-450.14 104.4,-102.81 245.71,-154.41 423.16,-154.41 83.75,0 173.86,11.51 269.93,34.93 55.57,13.1 83.75,49.23 83.75,107.97l0 28.98c0,33.34 -11.12,57.16 -32.55,71.06 -21.83,13.89 -52.8,17.46 -93.29,10.32 -78.2,-13.89 -149.25,-20.64 -212.76,-20.64z"/>
   <path class="fil0" d="M8053.1 1561.6c26.2,28.19 30.57,52.8 12.31,73.84 -18.26,21.43 -52.8,32.15 -103.21,32.15l-31.36 0c-71.06,0 -121.86,-15.48 -152.04,-46.45l-523.58 -533.89 0 482.69c0,65.1 -32.55,97.65 -97.65,97.65l-55.97 0c-65.1,0 -97.65,-32.55 -97.65,-97.65l0 -1472.29c0,-65.1 32.55,-97.65 97.65,-97.65l55.97 0c65.1,0 97.65,32.55 97.65,97.65l0 897.9 520 -452.52c29.38,-27 80.58,-40.5 153.22,-39.69l19.85 0c51.21,0 86.14,11.11 104,32.54 18.26,21.83 12.31,46.05 -17.86,72.25l-495.39 430.3 514.04 523.18z"/>
   <path class="fil0" d="M9183.63 599.8c0,-65.1 32.55,-97.26 97.64,-96.46l55.97 0c65.1,0 97.65,32.15 97.65,96.46l0 538.66c0,104 -12.7,192.12 -37.31,264.37 -25.01,72.65 -62.32,129.41 -112.34,170.69 -50.02,40.89 -107.97,70.26 -174.26,88.13 -66.29,17.86 -144.88,26.99 -235.39,26.99 -90.91,0 -169.1,-9.13 -235,-26.99 -65.89,-17.87 -123.85,-47.24 -173.86,-88.13 -50.02,-41.28 -87.34,-98.04 -112.34,-170.69 -24.61,-72.25 -37.32,-160.36 -37.32,-264.37l0 -538.66c0,-65.1 32.55,-97.26 97.65,-96.46l55.97 0c65.1,0 97.65,32.15 97.65,96.46l0 539.85c0,121.07 23.82,204.03 71.05,249.29 47.24,45.65 125.84,68.27 236.19,68.27 110.75,0 189.74,-22.63 236.97,-68.27 47.24,-45.25 71.06,-128.22 71.06,-249.29l0 -539.85z"/>
   <path class="fil0" d="M10187.11 481.5c212.37,0 372.74,46.84 480.31,140.52 107.98,93.68 161.56,248.49 161.56,464.03 0,215.54 -53.58,369.96 -160.76,462.84 -107.57,92.89 -267.95,139.73 -481.11,139.73 -70.26,0 -141.31,-3.97 -212.76,-11.91l0 369.96c0,65.1 -32.55,97.65 -97.65,97.65l-55.97 0c-65.1,0 -97.65,-32.55 -97.65,-97.65l0 -1207.13c0,-126.23 35.33,-217.53 105.99,-273.89 70.66,-55.97 189.74,-84.16 358.05,-84.16zm17.47 975.7c131.79,0 227.06,-27.78 285.41,-83.36 58.75,-55.18 88.12,-151.23 88.12,-287.79 0,-137.35 -29.37,-233.4 -88.12,-288.98 -58.35,-55.57 -153.62,-82.96 -285.41,-82.96 -51.2,0 -92.09,3.18 -123.06,9.92 -30.96,6.35 -54.37,17.86 -69.86,34.54 -15.48,16.67 -25.81,34.93 -30.17,54.38 -4.77,19.05 -7.14,45.65 -7.14,78.99l0 547.79c89.31,11.52 165.92,17.47 230.23,17.47z"/>
   <path class="fil0" d="M11285.09 1635.04c-26.2,27.78 -64.71,41.68 -115.51,41.68 -50.81,0 -89.71,-13.9 -117.11,-42.08 -26.99,-28.58 -40.49,-67.87 -40.49,-118.28 0,-52.01 13.5,-92.09 40.49,-121.07 27.39,-28.59 66.29,-42.88 117.11,-42.88 50.8,0 89.31,14.29 115.51,42.88 26.59,28.98 39.69,69.06 39.69,121.07 0,51.2 -13.1,90.9 -39.69,118.68z"/>
   <path class="fil0" d="M12390.2 599.8c0,-65.1 32.55,-97.26 97.64,-96.46l55.97 0c65.1,0 97.65,32.15 97.65,96.46l0 538.66c0,104 -12.7,192.12 -37.31,264.37 -25.01,72.65 -62.32,129.41 -112.34,170.69 -50.02,40.89 -107.97,70.26 -174.26,88.13 -66.29,17.86 -144.88,26.99 -235.39,26.99 -90.91,0 -169.1,-9.13 -235,-26.99 -65.89,-17.87 -123.85,-47.24 -173.86,-88.13 -50.02,-41.28 -87.34,-98.04 -112.34,-170.69 -24.61,-72.25 -37.32,-160.36 -37.32,-264.37l0 -538.66c0,-65.1 32.55,-97.26 97.65,-96.46l55.97 0c65.1,0 97.65,32.15 97.65,96.46l0 539.85c0,121.07 23.82,204.03 71.05,249.29 47.24,45.65 125.84,68.27 236.19,68.27 110.75,0 189.74,-22.63 236.97,-68.27 47.24,-45.25 71.06,-128.22 71.06,-249.29l0 -539.85z"/>
   <path class="fil0" d="M12984.43 1315.09l512.86 -547.79c8.33,-9.13 10.72,-17.07 7.14,-23.81 -3.97,-6.35 -13.5,-9.92 -28.19,-9.92l-519.6 0c-65.1,0 -97.65,-32.55 -97.65,-97.65l0 -36.12c0,-65.1 32.55,-97.26 97.65,-96.46l710.54 0c44.06,0 80.57,11.51 109.16,33.73 28.58,22.63 46.44,50.81 52.79,84.56 6.75,33.73 3.18,71.44 -10.72,113.12 -14.29,42.08 -38.5,81.78 -73.44,119.88l-511.67 547.8c-9.52,9.13 -11.91,17.07 -8.34,23.42 3.97,5.95 13.9,9.13 29.38,9.13l508.09 0c65.1,0 97.65,32.55 97.65,97.64l0 37.32c0,65.1 -32.55,97.65 -97.65,97.65l-699.03 0c-59.54,0 -104,-18.26 -133.77,-55.18 -29.37,-36.92 -39.29,-82.96 -29.37,-138.53 9.52,-55.18 37.71,-108.37 84.16,-158.79z"/>
   <path class="fil1" d="M950.4 145.19c524.89,0 950.4,425.51 950.4,950.4 0,524.89 -425.51,950.4 -950.4,950.4 -524.89,0 -950.4,-425.51 -950.4,-950.4 0,-524.89 425.51,-950.4 950.4,-950.4z"/>
  </g>
 </g>
</svg>
